<svg width="27" height="30" viewBox="0 0 27 30" fill="none" xmlns="http://www.w3.org/2000/svg">
<path d="M23.6185 4.68955C23.637 4.70349 23.6547 4.71888 23.6716 4.73573L26.8536 7.91771C27.0488 8.11297 27.0488 8.42955 26.8536 8.62482L26.1995 9.27884C26.1856 9.29733 26.1702 9.31508 26.1534 9.33192L19.0823 16.403C18.887 16.5983 18.5704 16.5983 18.3752 16.403C18.1799 16.2077 18.1799 15.8911 18.3752 15.6959L22.9183 11.1528C22.9322 11.1343 22.9476 11.1165 22.9645 11.0997L25.2929 8.77126H21.5C10.1782 8.77126 1 17.9494 1 29.2713H0C0 17.3971 9.62588 7.77126 21.5 7.77126H25.286L18.3683 0.853553C18.173 0.658291 18.173 0.341709 18.3683 0.146447C18.5635 -0.0488156 18.8801 -0.0488154 19.0754 0.146447L23.6185 4.68955Z" fill="#878A8C"/>
</svg>
